<mxfile host="app.diagrams.net" modified="2021-03-02T15:18:00.836Z" agent="5.0 (X11)" etag="5xQ22CdoLhdjVByemt0U" version="14.4.3" type="github">
  <diagram id="Hj5EV2O70gDtbLXgSawz" name="Page-1">
    <mxGraphModel dx="3342" dy="1854" grid="1" gridSize="10" guides="1" tooltips="1" connect="1" arrows="1" fold="1" page="1" pageScale="1" pageWidth="850" pageHeight="1100" math="0" shadow="0">
      <root>
        <mxCell id="0" />
        <mxCell id="1" parent="0" />
        <mxCell id="NTH7x6UyDsHmEF_6IqKO-1" value="&lt;div&gt;Consul&lt;/div&gt;&lt;div&gt;QA&lt;br&gt;&lt;/div&gt;" style="rounded=0;whiteSpace=wrap;html=1;" vertex="1" parent="1">
          <mxGeometry x="360" y="580" width="120" height="60" as="geometry" />
        </mxCell>
        <mxCell id="NTH7x6UyDsHmEF_6IqKO-2" value="SIP&lt;br&gt;UAT2" style="rounded=0;whiteSpace=wrap;html=1;" vertex="1" parent="1">
          <mxGeometry x="130" y="540" width="120" height="60" as="geometry" />
        </mxCell>
        <mxCell id="NTH7x6UyDsHmEF_6IqKO-3" value="SIP&lt;br&gt;QA5" style="rounded=0;whiteSpace=wrap;html=1;" vertex="1" parent="1">
          <mxGeometry x="130" y="650" width="120" height="60" as="geometry" />
        </mxCell>
        <mxCell id="NTH7x6UyDsHmEF_6IqKO-4" value="SIP &lt;br&gt;Preprod" style="rounded=0;whiteSpace=wrap;html=1;" vertex="1" parent="1">
          <mxGeometry x="130" y="290" width="120" height="60" as="geometry" />
        </mxCell>
        <mxCell id="NTH7x6UyDsHmEF_6IqKO-5" value="&lt;div&gt;SIP&lt;/div&gt;&lt;div&gt;Hotfix&lt;br&gt;&lt;/div&gt;" style="rounded=0;whiteSpace=wrap;html=1;" vertex="1" parent="1">
          <mxGeometry x="120" y="390" width="120" height="60" as="geometry" />
        </mxCell>
        <mxCell id="NTH7x6UyDsHmEF_6IqKO-6" value="&lt;div&gt;Consul &lt;br&gt;&lt;/div&gt;&lt;div&gt;Preprod&lt;/div&gt;" style="rounded=0;whiteSpace=wrap;html=1;" vertex="1" parent="1">
          <mxGeometry x="350" y="420" width="120" height="60" as="geometry" />
        </mxCell>
        <mxCell id="NTH7x6UyDsHmEF_6IqKO-7" value="" style="endArrow=classic;html=1;exitX=1;exitY=0.5;exitDx=0;exitDy=0;entryX=0;entryY=0.5;entryDx=0;entryDy=0;" edge="1" parent="1" source="NTH7x6UyDsHmEF_6IqKO-4" target="NTH7x6UyDsHmEF_6IqKO-6">
          <mxGeometry width="50" height="50" relative="1" as="geometry">
            <mxPoint x="400" y="960" as="sourcePoint" />
            <mxPoint x="450" y="910" as="targetPoint" />
          </mxGeometry>
        </mxCell>
        <mxCell id="NTH7x6UyDsHmEF_6IqKO-24" value="subscribes" style="edgeLabel;html=1;align=center;verticalAlign=middle;resizable=0;points=[];" vertex="1" connectable="0" parent="NTH7x6UyDsHmEF_6IqKO-7">
          <mxGeometry x="-0.1338" y="2" relative="1" as="geometry">
            <mxPoint as="offset" />
          </mxGeometry>
        </mxCell>
        <mxCell id="NTH7x6UyDsHmEF_6IqKO-8" value="" style="endArrow=classic;html=1;exitX=1;exitY=0.5;exitDx=0;exitDy=0;entryX=0;entryY=0.5;entryDx=0;entryDy=0;" edge="1" parent="1" source="NTH7x6UyDsHmEF_6IqKO-5" target="NTH7x6UyDsHmEF_6IqKO-6">
          <mxGeometry width="50" height="50" relative="1" as="geometry">
            <mxPoint x="260" y="330" as="sourcePoint" />
            <mxPoint x="410" y="410" as="targetPoint" />
          </mxGeometry>
        </mxCell>
        <mxCell id="NTH7x6UyDsHmEF_6IqKO-25" value="subscribes" style="edgeLabel;html=1;align=center;verticalAlign=middle;resizable=0;points=[];" vertex="1" connectable="0" parent="NTH7x6UyDsHmEF_6IqKO-8">
          <mxGeometry x="-0.1646" y="-4" relative="1" as="geometry">
            <mxPoint as="offset" />
          </mxGeometry>
        </mxCell>
        <mxCell id="NTH7x6UyDsHmEF_6IqKO-11" value="" style="endArrow=classic;html=1;exitX=1.008;exitY=0.383;exitDx=0;exitDy=0;exitPerimeter=0;" edge="1" parent="1" source="NTH7x6UyDsHmEF_6IqKO-2" target="NTH7x6UyDsHmEF_6IqKO-1">
          <mxGeometry width="50" height="50" relative="1" as="geometry">
            <mxPoint x="260" y="330" as="sourcePoint" />
            <mxPoint x="410" y="410" as="targetPoint" />
          </mxGeometry>
        </mxCell>
        <mxCell id="NTH7x6UyDsHmEF_6IqKO-26" value="subscribes" style="edgeLabel;html=1;align=center;verticalAlign=middle;resizable=0;points=[];" vertex="1" connectable="0" parent="NTH7x6UyDsHmEF_6IqKO-11">
          <mxGeometry x="-0.2123" y="4" relative="1" as="geometry">
            <mxPoint as="offset" />
          </mxGeometry>
        </mxCell>
        <mxCell id="NTH7x6UyDsHmEF_6IqKO-12" value="" style="endArrow=classic;html=1;exitX=1;exitY=0.633;exitDx=0;exitDy=0;exitPerimeter=0;entryX=0;entryY=0.75;entryDx=0;entryDy=0;" edge="1" parent="1" source="NTH7x6UyDsHmEF_6IqKO-3" target="NTH7x6UyDsHmEF_6IqKO-1">
          <mxGeometry width="50" height="50" relative="1" as="geometry">
            <mxPoint x="260.96000000000004" y="552.98" as="sourcePoint" />
            <mxPoint x="410" y="586.5040183696901" as="targetPoint" />
          </mxGeometry>
        </mxCell>
        <mxCell id="NTH7x6UyDsHmEF_6IqKO-21" style="edgeStyle=orthogonalEdgeStyle;rounded=0;orthogonalLoop=1;jettySize=auto;html=1;entryX=1;entryY=0.75;entryDx=0;entryDy=0;exitX=0.5;exitY=1;exitDx=0;exitDy=0;" edge="1" parent="1" source="NTH7x6UyDsHmEF_6IqKO-13" target="NTH7x6UyDsHmEF_6IqKO-6">
          <mxGeometry relative="1" as="geometry" />
        </mxCell>
        <mxCell id="NTH7x6UyDsHmEF_6IqKO-13" value="&lt;div&gt;Fulfillment&lt;br&gt;&lt;/div&gt;&lt;div&gt;Preprod&lt;/div&gt;" style="rounded=0;whiteSpace=wrap;html=1;" vertex="1" parent="1">
          <mxGeometry x="480" y="330" width="120" height="60" as="geometry" />
        </mxCell>
        <mxCell id="NTH7x6UyDsHmEF_6IqKO-20" style="edgeStyle=orthogonalEdgeStyle;rounded=0;orthogonalLoop=1;jettySize=auto;html=1;entryX=1.008;entryY=0.633;entryDx=0;entryDy=0;entryPerimeter=0;exitX=0.442;exitY=1;exitDx=0;exitDy=0;exitPerimeter=0;" edge="1" parent="1" source="NTH7x6UyDsHmEF_6IqKO-14" target="NTH7x6UyDsHmEF_6IqKO-1">
          <mxGeometry relative="1" as="geometry" />
        </mxCell>
        <mxCell id="NTH7x6UyDsHmEF_6IqKO-22" value="&lt;div&gt;updates&lt;br&gt;properties&lt;br&gt;&lt;/div&gt;" style="edgeLabel;html=1;align=center;verticalAlign=middle;resizable=0;points=[];" vertex="1" connectable="0" parent="NTH7x6UyDsHmEF_6IqKO-20">
          <mxGeometry x="0.3744" y="3" relative="1" as="geometry">
            <mxPoint as="offset" />
          </mxGeometry>
        </mxCell>
        <mxCell id="NTH7x6UyDsHmEF_6IqKO-14" value="&lt;div&gt;Fulfillment&lt;/div&gt;&lt;div&gt;QA&lt;/div&gt;" style="rounded=0;whiteSpace=wrap;html=1;" vertex="1" parent="1">
          <mxGeometry x="670" y="330" width="120" height="60" as="geometry" />
        </mxCell>
        <mxCell id="NTH7x6UyDsHmEF_6IqKO-18" style="edgeStyle=orthogonalEdgeStyle;rounded=0;orthogonalLoop=1;jettySize=auto;html=1;exitX=0.25;exitY=1;exitDx=0;exitDy=0;" edge="1" parent="1" source="NTH7x6UyDsHmEF_6IqKO-17" target="NTH7x6UyDsHmEF_6IqKO-13">
          <mxGeometry relative="1" as="geometry" />
        </mxCell>
        <mxCell id="NTH7x6UyDsHmEF_6IqKO-19" style="edgeStyle=orthogonalEdgeStyle;rounded=0;orthogonalLoop=1;jettySize=auto;html=1;exitX=0.75;exitY=1;exitDx=0;exitDy=0;" edge="1" parent="1" source="NTH7x6UyDsHmEF_6IqKO-17" target="NTH7x6UyDsHmEF_6IqKO-14">
          <mxGeometry relative="1" as="geometry" />
        </mxCell>
        <mxCell id="NTH7x6UyDsHmEF_6IqKO-17" value="Istio" style="rounded=0;whiteSpace=wrap;html=1;" vertex="1" parent="1">
          <mxGeometry x="580" y="180" width="120" height="60" as="geometry" />
        </mxCell>
        <mxCell id="NTH7x6UyDsHmEF_6IqKO-23" value="updates ;&lt;br&gt;properties" style="text;html=1;align=center;verticalAlign=middle;resizable=0;points=[];autosize=1;" vertex="1" parent="1">
          <mxGeometry x="495" y="445" width="70" height="30" as="geometry" />
        </mxCell>
        <mxCell id="NTH7x6UyDsHmEF_6IqKO-27" value="subscribes" style="text;html=1;align=center;verticalAlign=middle;resizable=0;points=[];autosize=1;" vertex="1" parent="1">
          <mxGeometry x="275" y="650" width="70" height="20" as="geometry" />
        </mxCell>
      </root>
    </mxGraphModel>
  </diagram>
</mxfile>
